<?xml version="1.0" standalone="no"?>
<!DOCTYPE svg PUBLIC "-//W3C//DTD SVG 20010904//EN"
 "http://www.w3.org/TR/2001/REC-SVG-20010904/DTD/svg10.dtd">
<svg version="1.0" xmlns="http://www.w3.org/2000/svg"
 width="116.000000pt" height="134.000000pt" viewBox="0 0 116.000000 134.000000"
 preserveAspectRatio="xMidYMid meet">
<metadata>
Created by potrace 1.16, written by Peter Selinger 2001-2019
</metadata>
<g transform="translate(0.000000,134.000000) scale(0.100000,-0.100000)"
fill="#fff" stroke="none">
<path d="M0 670 l0 -670 580 0 580 0 0 670 0 670 -580 0 -580 0 0 -670z m830
260 l0 -60 -155 0 -155 0 0 -85 0 -85 135 0 135 0 0 -60 0 -60 -135 0 -135 0
0 -140 0 -140 -70 0 -70 0 0 345 0 345 225 0 225 0 0 -60z"/>
</g>
</svg>
